<?xml version="1.0" encoding="UTF-8" ?>
<!DOCTYPE svg PUBLIC "-//W3C//DTD SVG 1.1//EN" "http://www.w3.org/Graphics/SVG/1.1/DTD/svg11.dtd">
<svg width="550pt" height="957pt" viewBox="0 0 550 957" version="1.1" xmlns="http://www.w3.org/2000/svg">
<g id="#ffffffff">
<path fill="#ffffff" opacity="1.00" d=" M 315.22 6.43 C 317.55 4.21 319.49 1.06 322.98 0.64 C 325.47 -0.02 327.72 1.52 328.26 3.98 C 330.69 15.20 325.88 26.27 323.09 37.00 C 320.21 47.70 317.43 58.43 314.11 69.00 C 313.09 74.02 311.46 78.90 310.07 83.82 C 308.66 89.93 306.69 95.89 305.11 101.96 C 304.08 105.60 303.41 109.35 302.11 112.90 C 299.71 122.83 296.90 132.66 294.14 142.49 C 293.65 144.33 293.16 146.18 292.68 148.04 C 291.62 150.98 291.21 154.10 290.14 157.04 C 284.33 178.91 278.32 200.73 272.13 222.50 C 266.47 243.63 260.81 264.77 255.11 285.88 C 248.94 310.93 242.59 335.93 236.11 360.90 C 235.86 364.67 234.54 369.64 238.22 372.19 C 242.88 373.08 247.34 371.66 251.73 370.30 C 256.05 369.35 260.20 367.81 264.52 366.85 C 283.18 361.53 302.00 356.71 320.42 350.55 C 327.79 348.42 335.04 345.86 342.46 343.85 C 368.93 335.37 395.70 327.73 422.23 319.39 C 453.26 310.08 484.13 300.21 515.16 290.90 C 520.38 289.05 525.79 287.72 531.10 286.25 C 532.91 286.19 534.74 286.21 536.57 286.24 C 537.41 287.03 538.26 287.82 539.12 288.61 C 538.71 290.16 538.59 291.95 537.32 293.10 C 533.38 297.27 528.24 300.00 523.52 303.15 C 520.81 304.80 518.21 306.64 515.44 308.17 C 514.18 309.02 512.89 309.82 511.60 310.60 C 508.15 312.47 504.93 314.71 501.56 316.70 C 499.85 317.60 498.19 318.60 496.55 319.63 C 490.88 322.93 485.26 326.34 479.56 329.60 C 474.91 332.31 470.15 334.83 465.55 337.62 C 462.56 339.27 459.58 340.96 456.60 342.62 C 454.50 343.75 452.49 345.02 450.40 346.16 C 447.79 347.65 445.17 349.12 442.58 350.63 C 439.51 352.18 436.67 354.13 433.59 355.63 C 424.12 361.03 414.69 366.49 405.40 372.16 C 403.80 373.26 402.15 374.27 400.43 375.16 C 395.25 378.64 390.02 382.07 384.95 385.72 C 379.05 392.00 374.37 399.63 372.01 407.96 C 371.99 410.20 371.58 412.39 370.78 414.48 C 366.69 420.27 363.34 426.54 359.60 432.55 C 354.96 440.24 350.28 447.90 345.59 455.55 C 342.11 461.16 338.76 466.87 335.16 472.41 C 331.29 478.81 327.17 485.08 323.18 491.41 C 321.46 494.54 319.26 497.37 317.65 500.56 C 316.81 501.85 316.00 503.16 315.16 504.45 C 310.37 512.53 305.38 520.49 300.64 528.60 C 298.80 531.53 296.93 534.43 295.19 537.43 C 289.32 546.81 283.49 556.22 277.61 565.59 C 275.09 569.51 272.74 573.53 270.15 577.40 C 266.93 582.83 263.55 588.16 260.16 593.48 C 258.35 596.53 256.44 599.52 254.62 602.57 C 251.09 608.17 247.75 613.89 244.17 619.46 C 243.23 621.14 242.16 622.74 241.16 624.38 C 237.49 630.88 233.36 637.11 229.64 643.57 C 227.60 646.88 225.52 650.16 223.64 653.55 C 222.79 654.82 221.98 656.12 221.17 657.43 C 220.13 659.56 218.75 661.50 217.59 663.57 C 216.79 664.84 215.98 666.12 215.16 667.39 C 212.44 672.18 209.40 676.79 206.63 681.56 C 198.83 694.53 191.03 707.50 183.16 720.42 C 181.46 723.92 179.25 727.15 177.15 730.43 C 176.05 732.51 174.73 734.46 173.64 736.55 C 171.03 740.92 168.15 745.13 165.66 749.57 C 164.84 750.85 164.04 752.15 163.18 753.42 C 155.77 765.52 147.93 777.37 140.62 789.54 C 139.18 791.87 137.68 794.17 136.17 796.47 C 133.61 800.85 130.80 805.08 128.18 809.43 C 127.33 810.79 126.42 812.12 125.64 813.54 C 118.31 825.21 111.03 836.92 103.65 848.56 C 102.18 850.87 100.81 853.26 99.17 855.47 C 98.37 856.83 97.49 858.15 96.70 859.53 C 91.98 866.86 87.25 874.18 82.58 881.54 C 74.81 893.70 66.70 905.64 58.54 917.53 C 55.15 922.14 51.53 927.06 46.14 929.43 C 44.63 930.21 43.23 928.99 42.12 928.13 C 41.36 924.91 42.18 921.66 42.49 918.46 C 42.99 917.01 43.41 915.55 43.90 914.12 C 45.54 908.77 47.79 903.64 49.85 898.45 C 50.45 896.72 51.09 895.01 51.88 893.38 C 52.47 891.68 53.10 890.00 53.88 888.40 C 56.55 881.07 59.17 873.72 61.88 866.41 C 64.29 859.34 66.62 852.25 68.94 845.15 C 71.51 836.88 74.91 828.88 77.35 820.57 C 81.55 808.97 85.42 797.23 89.35 785.53 C 97.66 761.85 105.44 737.97 113.87 714.32 C 119.05 698.85 124.52 683.47 129.90 668.07 C 140.72 636.18 151.96 604.43 162.64 572.49 C 163.79 569.50 164.43 566.30 166.04 563.50 C 166.16 561.47 166.53 559.38 166.05 557.38 C 165.14 556.22 163.71 555.74 162.49 555.04 C 150.64 555.25 139.19 558.58 127.50 560.09 C 120.57 561.77 113.43 562.66 106.52 564.47 C 88.93 567.69 71.51 571.85 53.91 575.08 C 46.88 576.77 39.61 577.40 32.68 579.49 C 32.42 579.39 31.89 579.17 31.62 579.07 C 30.28 580.11 28.55 579.73 26.99 580.02 C 18.88 581.51 10.75 583.43 2.44 582.89 C 1.83 582.40 0.62 581.42 0.01 580.93 C 0.45 575.85 5.73 573.79 9.43 571.38 C 12.39 569.76 15.34 568.08 18.52 566.91 C 19.47 566.39 20.43 565.89 21.39 565.38 C 25.13 564.00 28.67 562.10 32.48 560.89 C 46.65 555.02 61.20 550.09 75.44 544.37 C 76.76 543.84 78.09 543.33 79.44 542.87 C 82.74 541.51 86.04 540.14 89.38 538.89 C 91.66 537.75 94.06 536.89 96.41 535.89 C 98.75 534.78 101.14 533.77 103.57 532.87 C 107.41 530.78 111.58 529.40 115.45 527.37 C 118.90 526.01 122.17 524.28 125.59 522.86 C 144.44 513.91 163.04 504.42 181.58 494.84 C 184.40 493.14 187.48 491.96 190.35 490.36 C 191.41 489.84 192.47 489.33 193.54 488.84 C 202.08 484.20 210.80 479.90 219.40 475.39 C 221.06 474.48 222.71 473.57 224.46 472.83 C 229.61 469.75 235.11 467.31 240.34 464.37 C 245.15 462.03 249.74 459.25 254.52 456.85 C 259.08 454.23 263.79 451.88 268.40 449.33 C 271.82 447.56 275.17 445.64 278.57 443.83 C 284.85 440.34 291.17 436.94 297.42 433.40 C 300.83 431.59 304.17 429.64 307.59 427.85 C 312.96 424.95 318.15 421.71 323.54 418.86 C 326.92 416.88 330.15 414.64 333.63 412.84 C 334.88 412.00 336.15 411.20 337.44 410.41 C 339.94 409.07 342.08 407.13 344.61 405.84 C 347.64 403.55 350.55 401.14 353.31 398.53 C 353.04 397.58 352.76 396.64 352.47 395.71 C 345.67 395.44 339.63 398.85 333.45 401.12 C 330.49 402.51 327.48 403.78 324.50 405.12 C 318.88 407.94 313.12 410.47 307.44 413.15 C 302.88 415.38 298.25 417.45 293.66 419.61 C 288.90 421.69 284.26 424.06 279.50 426.13 C 274.47 428.45 269.48 430.86 264.42 433.12 C 255.77 437.15 247.17 441.28 238.42 445.10 C 224.83 451.54 211.18 457.85 197.51 464.12 C 192.55 466.60 187.47 468.82 182.43 471.15 C 178.15 473.21 173.83 475.21 169.47 477.12 C 165.57 479.08 161.59 480.86 157.62 482.67 C 157.12 482.92 156.10 483.42 155.60 483.67 C 150.90 485.82 146.27 488.10 141.51 490.12 C 140.54 490.63 139.58 491.14 138.61 491.66 C 133.83 493.70 129.18 496.06 124.42 498.14 C 119.87 500.40 115.18 502.36 110.65 504.63 C 109.26 505.21 107.89 505.85 106.58 506.61 C 101.76 508.53 97.26 511.13 92.47 513.11 C 86.47 515.88 80.54 518.79 74.58 521.62 C 72.82 522.39 71.10 523.24 69.40 524.14 C 61.25 527.63 53.60 532.46 44.91 534.56 C 41.31 535.15 37.48 535.22 34.09 533.72 C 31.04 528.23 36.46 523.27 38.39 518.40 C 41.03 513.38 43.71 508.39 46.39 503.40 C 49.22 498.13 51.95 492.82 54.85 487.60 C 59.84 477.77 65.25 468.17 70.40 458.43 C 72.73 454.08 75.02 449.69 77.38 445.35 C 79.72 441.03 82.09 436.73 84.38 432.38 C 84.64 431.89 85.16 430.90 85.42 430.40 C 87.88 425.78 90.31 421.16 92.85 416.59 C 95.29 411.82 97.93 407.16 100.38 402.40 C 102.89 397.81 105.29 393.16 107.82 388.59 C 110.39 383.89 112.84 379.12 115.41 374.42 C 118.01 369.40 120.70 364.42 123.37 359.43 C 125.83 354.80 128.27 350.15 130.86 345.59 C 132.91 341.47 135.29 337.51 137.38 333.41 C 139.87 328.80 142.31 324.16 144.84 319.57 C 147.22 314.79 150.02 310.22 152.36 305.42 C 155.07 300.44 157.75 295.44 160.39 290.43 C 162.66 286.06 165.10 281.78 167.35 277.40 C 169.72 273.08 171.99 268.70 174.42 264.41 C 176.66 260.02 179.11 255.75 181.35 251.37 C 181.62 250.87 182.15 249.88 182.41 249.38 C 184.36 245.69 186.38 242.03 188.39 238.37 C 190.96 233.35 193.87 228.50 196.36 223.44 C 198.85 219.18 201.02 214.75 203.41 210.44 C 205.41 206.73 207.44 203.04 209.38 199.30 C 212.11 194.37 214.69 189.37 217.41 184.43 C 219.96 179.37 222.81 174.47 225.39 169.42 C 227.78 165.11 229.91 160.66 232.41 156.41 C 234.41 152.73 236.34 149.02 238.40 145.37 C 243.26 136.00 248.46 126.80 253.36 117.44 C 255.46 113.80 257.44 110.09 259.40 106.38 C 261.34 102.69 263.41 99.07 265.36 95.39 C 267.98 90.37 270.81 85.46 273.39 80.42 C 274.96 77.36 276.78 74.44 278.36 71.38 C 280.71 67.05 283.08 62.74 285.42 58.41 C 287.18 55.10 289.00 51.82 290.86 48.57 C 292.55 45.12 294.57 41.84 296.36 38.44 C 297.97 35.88 299.20 33.12 300.82 30.57 C 302.43 27.54 304.03 24.51 305.84 21.59 C 307.05 19.18 308.29 16.77 309.82 14.55 C 311.37 11.69 313.43 9.14 315.22 6.43 Z" />
</g>
</svg>
